<svg xmlns="http://www.w3.org/2000/svg" viewBox="0 0 314.04 290.04"><defs><style>.cls-1{stroke:#000;stroke-linecap:round;stroke-linejoin:round;stroke-width:16.02px;fill-rule:evenodd;}</style></defs><title>Explore</title><g id="Layer_1" data-name="Layer 1"><path class="cls-1" d="M60.32,76.75H97.49v-33a13.27,13.27,0,0,1,13.23-13.23h92.61a13.3,13.3,0,0,1,13.23,13.23v33h37.16a24.85,24.85,0,0,1,24.76,24.77V234.75a24.86,24.86,0,0,1-24.76,24.76H60.32a24.85,24.85,0,0,1-24.76-24.76V101.52A24.83,24.83,0,0,1,60.32,76.75ZM157,113.58a49.87,49.87,0,1,0,49.87,49.86A49.86,49.86,0,0,0,157,113.58Z"/></g></svg>