<svg xmlns="http://www.w3.org/2000/svg" viewBox="0 0 314.04 290.04"><defs><style>.cls-1{stroke:#000;stroke-linecap:round;stroke-linejoin:round;stroke-width:16.02px;fill-rule:evenodd;}</style></defs><title>Notifications</title><g id="Layer_1" data-name="Layer 1"><path class="cls-1" d="M203.76,225.88c17.77-14.15,35.87-30.37,51-47.71s27.15-35.82,32.87-54.49c9.82-32-2.24-65.32-31.15-82.07a67.6,67.6,0,0,0-33.61-9,78.5,78.5,0,0,0-35.75,8.72,98.88,98.88,0,0,0-32.32,26.74,99,99,0,0,0-32.34-26.74A78.43,78.43,0,0,0,86.67,32.6a67.63,67.63,0,0,0-33.61,9c-29.15,16.87-41,50-31.16,82.07,5.73,18.67,17.8,37.14,32.88,54.49s33.18,33.56,51,47.71C158.6,268,150.89,268,203.76,225.88Z"/></g></svg>