<svg xmlns="http://www.w3.org/2000/svg" viewBox="0 0 314.04 290.04"><defs><style>.cls-1{fill:none;stroke:#000;stroke-linecap:round;stroke-linejoin:round;stroke-width:16.02px;}.cls-2{fill-rule:evenodd;}</style></defs><title>Reels</title><g id="Layer_1" data-name="Layer 1"><rect class="cls-1" x="33.34" y="25.33" width="247.37" height="247.37" rx="75.84"/><path d="M277.6,97.61H36.44a8,8,0,0,1,0-16H277.6a8,8,0,0,1,0,16Z"/><path d="M210.79,97.61a8,8,0,0,1-6.91-4L166.3,29.38a8,8,0,1,1,13.82-8.09L217.7,85.56a8,8,0,0,1-2.86,11A7.91,7.91,0,0,1,210.79,97.61Zm-69.94,0a8,8,0,0,1-6.91-4L96.34,29.38a8,8,0,1,1,13.82-8.09l37.6,64.27a8,8,0,0,1-2.86,11A7.91,7.91,0,0,1,140.85,97.61Z"/><path class="cls-2" d="M147.66,138.85l45,22.49a12.83,12.83,0,0,1,0,22.95l-46,23A12.82,12.82,0,0,1,128,195.84H128V149.79a12.89,12.89,0,0,1,19.69-10.94Z"/></g></svg>